<?xml version="1.0" encoding="UTF-8" standalone="no"?>
<!DOCTYPE svg PUBLIC "-//W3C//DTD SVG 1.1//EN" "http://www.w3.org/Graphics/SVG/1.1/DTD/svg11.dtd">
<!-- Created with Vectornator (http://vectornator.io/) -->
<svg height="100%" stroke-miterlimit="10" style="fill-rule:nonzero;clip-rule:evenodd;stroke-linecap:round;stroke-linejoin:round;" version="1.1" viewBox="0 0 3840 3840" width="100%" xml:space="preserve" xmlns="http://www.w3.org/2000/svg" xmlns:vectornator="http://vectornator.io" xmlns:xlink="http://www.w3.org/1999/xlink">
<defs/>
<g id="Ebene-1" vectornator:layerName="Ebene 1">
<path d="M2385.09 1162.85C2322.91 1241.15 2265.7 1269.99 2213.47 1249.39C2161.23 1228.78 2115.22 1214.36 2075.42 1206.12C2035.62 1197.88 1980.9 1192.73 1911.26 1190.67C1841.61 1188.61 1783.16 1190.67 1735.9 1196.85C1688.64 1203.03 1643.87 1212.3 1601.59 1224.66C1559.3 1237.03 1512.04 1256.6 1459.81 1283.38C1407.58 1310.17 1365.29 1335.92 1332.96 1360.65C1300.62 1385.37 1265.8 1418.34 1228.49 1459.55C1191.18 1500.76 1160.09 1542.99 1135.22 1586.26C1110.34 1629.53 1091.69 1669.71 1079.25 1706.79C1066.81 1743.88 1056.86 1789.21 1049.4 1842.78C1041.94 1896.35 1039.45 1949.92 1041.94 2003.49C1044.43 2057.06 1058.11 2120.93 1082.98 2195.11C1107.85 2269.28 1131.48 2322.85 1153.87 2355.82C1176.26 2388.79 1204.86 2423.81 1239.68 2460.9C1274.51 2497.99 1260.82 2552.59 1198.64 2624.7C1136.46 2696.81 1105.37 2739.05 1105.37 2751.41C1105.37 2763.78 1109.1 2773.05 1116.56 2779.23C1124.02 2785.41 1137.7 2784.38 1157.6 2776.14C1177.5 2767.9 1214.81 2728.75 1269.53 2658.7C1296.89 2623.67 1324.25 2588.64 1351.61 2553.62C1367.78 2562.89 1383.95 2572.16 1400.11 2581.43C1432.45 2599.98 1479.71 2619.55 1541.89 2640.15C1604.07 2660.76 1663.77 2674.15 1720.98 2680.33C1778.19 2686.51 1829.18 2688.57 1873.95 2686.51C1918.72 2684.45 1964.74 2678.27 2012 2667.97C2059.25 2657.67 2100.29 2645.3 2135.12 2630.88C2169.94 2616.46 2202.27 2599.98 2232.12 2581.43C2261.97 2562.89 2299.28 2531.98 2344.05 2488.71C2388.82 2445.45 2413.7 2412.48 2418.67 2389.82C2421.16 2378.48 2423.65 2367.15 2426.13 2355.82C2417.43 2354.79 2408.72 2353.76 2400.02 2352.73C2382.61 2350.67 2361.46 2363.03 2336.59 2389.82C2311.72 2416.6 2270.68 2450.6 2213.47 2491.8C2156.26 2533.01 2102.78 2560.83 2053.04 2575.25C2003.29 2589.67 1953.54 2596.88 1903.8 2596.88C1854.05 2596.88 1815.5 2593.79 1788.14 2587.61C1760.78 2581.43 1729.68 2570.1 1694.86 2553.62C1660.04 2537.13 1627.7 2515.5 1597.86 2488.71C1568.01 2461.93 1544.38 2434.11 1526.97 2405.27C1509.56 2376.42 1605.32 2234.26 1814.25 1978.77C1918.72 1851.02 2023.19 1723.28 2127.66 1595.53C2133.87 1603.78 2140.09 1612.02 2146.31 1620.26C2158.75 1636.74 2181.13 1650.13 2213.47 1660.44C2245.8 1670.74 2283.11 1673.83 2325.4 1669.71C2367.68 1665.59 2398.77 1656.32 2418.67 1641.89C2438.57 1627.47 2452.25 1612.02 2459.71 1595.53C2467.17 1579.05 2469.66 1551.24 2467.17 1512.09C2464.69 1472.94 2455.98 1441 2441.06 1416.28C2426.13 1391.55 2407.48 1368.89 2385.09 1348.29C2362.71 1327.68 2382.61 1280.29 2444.79 1206.12C2506.97 1131.94 2538.06 1088.68 2538.06 1076.31C2538.06 1063.95 2528.11 1055.71 2508.22 1051.59C2488.32 1047.47 2447.28 1084.56 2385.09 1162.85ZM1888.87 1237.03C1943.59 1237.03 1989.61 1242.18 2026.92 1252.48C2064.23 1262.78 2095.32 1277.2 2120.19 1295.75C2145.07 1314.29 2159.99 1337.98 2164.97 1366.83C2169.94 1395.68 2104.03 1497.66 1967.22 1672.8C1830.42 1847.93 1712.27 1994.22 1612.78 2111.66C1563.03 2170.38 1513.29 2229.1 1463.54 2287.83C1456.08 2266.19 1448.62 2244.56 1441.16 2222.92C1426.23 2179.66 1415.04 2133.3 1407.58 2083.85C1400.11 2034.4 1396.38 1968.46 1396.38 1886.05C1396.38 1803.63 1403.85 1727.4 1418.77 1657.35C1433.69 1587.29 1449.86 1533.72 1467.27 1496.63C1484.68 1459.55 1507.07 1424.52 1534.43 1391.55C1561.79 1358.59 1590.39 1331.8 1620.24 1311.2C1650.09 1290.6 1688.64 1273.08 1735.9 1258.66C1783.16 1244.24 1834.15 1237.03 1888.87 1237.03Z" fill="#b1b70d" fill-rule="nonzero" opacity="1" stroke="none"/>
</g>
</svg>
