<?xml version="1.0" encoding="UTF-8" standalone="no"?>
<!DOCTYPE svg PUBLIC "-//W3C//DTD SVG 1.1//EN" "http://www.w3.org/Graphics/SVG/1.1/DTD/svg11.dtd">
<!-- Created with Vectornator (http://vectornator.io/) -->
<svg height="100%" stroke-miterlimit="10" style="fill-rule:nonzero;clip-rule:evenodd;stroke-linecap:round;stroke-linejoin:round;" version="1.1" viewBox="0 0 225 225" width="10%" xml:space="preserve" xmlns="http://www.w3.org/2000/svg" xmlns:vectornator="http://vectornator.io" xmlns:xlink="http://www.w3.org/1999/xlink">
<defs/>
<g id="Ebene-1" vectornator:layerName="Ebene 1" style="fill:#010002; stroke:#ffffff; stroke-width: 4">
<path d="M58.5562 103.09C58.5375 107.871 58.5187 112.652 58.5 117.434C59.2125 117.415 59.925 117.396 60.6375 117.377C62.0625 117.34 62.775 116.234 62.775 114.059C62.775 111.884 63.1313 110.421 63.8438 109.671C64.5563 108.921 65.025 108.527 65.25 108.49C65.475 108.452 65.7375 108.471 66.0375 108.546C66.3375 108.621 66.6375 108.809 66.9375 109.109C67.2375 109.409 67.4062 109.69 67.4438 109.952C67.4813 110.215 67.65 110.421 67.95 110.571C68.25 110.721 68.4375 110.965 68.5125 111.302C68.5875 111.64 68.775 111.977 69.075 112.315C69.375 112.652 69.525 112.915 69.525 113.102C69.525 113.29 69.6563 113.44 69.9188 113.552C70.1813 113.665 70.35 113.871 70.425 114.171C70.5 114.471 70.6875 114.771 70.9875 115.071C71.2875 115.371 71.4562 115.671 71.4938 115.971C71.5312 116.271 71.6438 116.44 71.8312 116.477C72.0188 116.515 72.1875 116.684 72.3375 116.984C72.4875 117.284 73.4062 117.434 75.0938 117.434C75.9375 117.434 76.7812 117.434 77.625 117.434C77.625 117.396 77.625 117.359 77.625 117.321C77.625 117.246 77.4938 117.152 77.2313 117.04C76.9688 116.927 76.8188 116.759 76.7812 116.534C76.7438 116.309 76.6125 116.102 76.3875 115.915C76.1625 115.727 75.9938 115.409 75.8813 114.959C75.7687 114.509 75.5812 114.246 75.3188 114.171C75.0563 114.096 74.8875 113.909 74.8125 113.609C74.7375 113.309 74.5875 113.121 74.3625 113.046C74.1375 112.971 73.9688 112.746 73.8563 112.371C73.7438 111.996 73.5562 111.696 73.2938 111.471C73.0313 111.246 72.8625 110.984 72.7875 110.684C72.7125 110.384 72.5812 110.215 72.3937 110.177C72.2063 110.14 72.0375 109.952 71.8875 109.615C71.7375 109.277 71.5687 109.071 71.3813 108.996C71.1938 108.921 71.025 108.64 70.875 108.152C70.725 107.665 70.575 107.402 70.425 107.365C70.275 107.327 70.125 107.215 69.975 107.027C69.825 106.84 69.75 106.671 69.75 106.521C69.75 106.371 69.6 106.202 69.3 106.015C69 105.827 68.85 105.602 68.85 105.34C68.85 105.077 68.9813 104.852 69.2438 104.665C69.5063 104.477 69.6562 104.29 69.6938 104.102C69.7313 103.915 69.8063 103.765 69.9188 103.652C70.0312 103.54 70.1813 103.484 70.3688 103.484C70.5563 103.484 70.6875 103.352 70.7625 103.09C70.8375 102.827 71.0063 102.659 71.2687 102.584C71.5312 102.509 71.7 102.34 71.775 102.077C71.85 101.815 72.0188 101.646 72.2812 101.571C72.5438 101.496 72.7125 101.327 72.7875 101.065C72.8625 100.802 73.0313 100.634 73.2938 100.559C73.5563 100.484 73.725 100.315 73.8 100.052C73.875 99.79 74.0438 99.6212 74.3063 99.5462C74.5688 99.4712 74.7375 99.3025 74.8125 99.04C74.8875 98.7775 75.0563 98.6087 75.3188 98.5337C75.5813 98.4587 75.75 98.29 75.825 98.0275C75.9 97.765 76.05 97.5775 76.275 97.465C76.3875 97.4087 76.5 97.3525 76.6125 97.2962C75.75 97.2962 74.8875 97.2962 74.025 97.2962C72.3 97.2962 71.4188 97.3712 71.3813 97.5212C71.3438 97.6712 71.2125 97.8025 70.9875 97.915C70.7625 98.0275 70.5375 98.2337 70.3125 98.5337C70.0875 98.8337 69.9 99.0025 69.75 99.04C69.6 99.0775 69.45 99.2275 69.3 99.49C69.15 99.7525 69 99.9025 68.85 99.94C68.7 99.9775 68.25 100.371 67.5 101.121C66.75 101.871 66.2625 102.284 66.0375 102.359C65.8125 102.434 65.6437 102.602 65.5312 102.865C65.4188 103.127 65.2687 103.296 65.0812 103.371C64.8938 103.446 64.725 103.596 64.575 103.821C64.425 104.046 64.1625 104.177 63.7875 104.215C63.4125 104.252 63.15 104.196 63 104.046C62.85 103.896 62.775 101.384 62.775 96.5087C62.775 91.6337 62.7188 89.1212 62.6063 88.9712C62.4937 88.8212 61.8 88.7462 60.525 88.7462C59.8875 88.7462 59.25 88.7462 58.6125 88.7462C58.5938 93.5275 58.575 98.3087 58.5562 103.09ZM158.456 89.0275C158.269 89.215 158.175 93.94 158.175 103.202C158.175 112.465 158.213 117.152 158.287 117.265C158.363 117.377 158.625 117.434 159.075 117.434C159.3 117.434 159.525 117.434 159.75 117.434C159.75 112.709 159.75 107.984 159.75 103.259C159.75 93.8087 159.731 89.0462 159.694 88.9712C159.656 88.8962 159.488 88.84 159.188 88.8025C158.888 88.765 158.644 88.84 158.456 89.0275ZM0.7875 97.2962C0.5625 97.3712 0.4875 97.7837 0.5625 98.5337C0.6375 99.2837 0.65625 101.834 0.61875 106.184C0.58125 110.534 0.58125 112.859 0.61875 113.159C0.65625 113.459 0.7875 113.796 1.0125 114.171C1.2375 114.546 1.425 115.015 1.575 115.577C1.725 116.14 2.00625 116.477 2.41875 116.59C2.83125 116.702 3.1125 116.871 3.2625 117.096C3.4125 117.321 3.69375 117.434 4.10625 117.434C4.3125 117.434 4.51875 117.434 4.725 117.434C4.74375 115.371 4.7625 113.309 4.78125 111.246C4.81875 107.121 4.89375 104.909 5.00625 104.609C5.11875 104.309 5.26875 104.065 5.45625 103.877C5.64375 103.69 5.775 103.409 5.85 103.034C5.925 102.659 6.3 102.152 6.975 101.515C7.65 100.877 8.64375 100.54 9.95625 100.502C11.2688 100.465 12.0187 100.502 12.2063 100.615C12.3938 100.727 12.5438 100.896 12.6562 101.121C12.7688 101.346 12.9375 101.515 13.1625 101.627C13.3875 101.74 13.5188 101.909 13.5563 102.134C13.5938 102.359 13.7062 102.49 13.8938 102.527C14.0813 102.565 14.2313 102.696 14.3438 102.921C14.4563 103.146 14.5125 105.265 14.5125 109.277C14.5125 113.29 14.6625 115.39 14.9625 115.577C15.2625 115.765 15.4312 115.952 15.4688 116.14C15.5063 116.327 15.675 116.459 15.975 116.534C16.275 116.609 16.5188 116.759 16.7063 116.984C16.8938 117.209 17.2688 117.34 17.8313 117.377C18.1125 117.396 18.3938 117.415 18.675 117.434C18.6938 115.165 18.7125 112.896 18.7312 110.627C18.7688 106.09 18.9188 103.709 19.1813 103.484C19.4438 103.259 19.6313 102.921 19.7438 102.471C19.8562 102.021 20.0438 101.74 20.3063 101.627C20.5688 101.515 20.775 101.327 20.925 101.065C21.075 100.802 21.3 100.634 21.6 100.559C21.9 100.484 22.6313 100.446 23.7937 100.446C24.9563 100.446 25.6312 100.465 25.8188 100.502C26.0063 100.54 26.175 100.709 26.325 101.009C26.475 101.309 26.7 101.515 27 101.627C27.3 101.74 27.4688 101.965 27.5063 102.302C27.5438 102.64 27.6937 103.034 27.9563 103.484C28.2188 103.934 28.3688 106.015 28.4062 109.727C28.4438 113.44 28.575 115.39 28.8 115.577C29.025 115.765 29.175 115.952 29.25 116.14C29.325 116.327 29.5312 116.496 29.8688 116.646C30.2063 116.796 30.3938 116.965 30.4313 117.152C30.4688 117.34 30.7688 117.415 31.3313 117.377C31.8938 117.34 32.175 115.071 32.175 110.571C32.175 106.071 32.1 103.221 31.95 102.021C31.8 100.821 31.5938 100.146 31.3313 99.9962C31.0688 99.8462 30.9187 99.6775 30.8813 99.49C30.8438 99.3025 30.7125 99.1525 30.4875 99.04C30.2625 98.9275 30.1125 98.7775 30.0375 98.59C29.9625 98.4025 29.775 98.2712 29.475 98.1962C29.175 98.1212 28.95 97.9525 28.8 97.69C28.65 97.4275 27.5813 97.2775 25.5938 97.24C23.6063 97.2025 22.4813 97.315 22.2188 97.5775C21.9563 97.84 21.6375 98.0087 21.2625 98.0837C20.8875 98.1587 20.6438 98.3275 20.5312 98.59C20.4187 98.8525 20.2125 99.0587 19.9125 99.2087C19.6125 99.3587 19.4438 99.5462 19.4062 99.7712C19.3688 99.9962 19.1625 100.146 18.7875 100.221C18.4125 100.296 18.0188 100.221 17.6062 99.9962C17.1938 99.7712 16.8938 99.4525 16.7063 99.04C16.5188 98.6275 16.2188 98.3462 15.8063 98.1962C15.3938 98.0462 15.1312 97.8587 15.0188 97.6337C14.9062 97.4087 14.7563 97.2775 14.5687 97.24C14.3813 97.2025 13.35 97.2025 11.475 97.24C9.6 97.2775 8.625 97.4087 8.55 97.6337C8.475 97.8587 8.30625 98.0087 8.04375 98.0837C7.78125 98.1587 7.6125 98.29 7.5375 98.4775C7.4625 98.665 7.29375 98.8337 7.03125 98.9837C6.76875 99.1337 6.50625 99.3587 6.24375 99.6587C5.98125 99.9587 5.71875 100.071 5.45625 99.9962C5.19375 99.9212 5.00625 99.6212 4.89375 99.0962C4.78125 98.5712 4.59375 98.2712 4.33125 98.1962C4.06875 98.1212 3.8625 97.9525 3.7125 97.69C3.5625 97.4275 3.09375 97.2775 2.30625 97.24C1.51875 97.2025 1.0125 97.2212 0.7875 97.2962ZM41.85 97.24C41.625 97.2775 41.4188 97.4275 41.2313 97.69C41.0438 97.9525 40.7438 98.1025 40.3313 98.14C39.9188 98.1775 39.6562 98.3275 39.5438 98.59C39.4312 98.8525 39.2437 99.0212 38.9813 99.0962C38.7188 99.1712 38.5688 99.3025 38.5312 99.49C38.4938 99.6775 38.325 99.865 38.025 100.052C37.725 100.24 37.5375 100.559 37.4625 101.009C37.3875 101.459 37.2188 101.815 36.9563 102.077C36.6938 102.34 36.5625 102.79 36.5625 103.427C36.5625 103.746 36.5625 104.065 36.5625 104.384C36.7313 104.384 36.9 104.384 37.0688 104.384C37.4062 104.384 37.6875 104.234 37.9125 103.934C38.1375 103.634 38.5125 103.465 39.0375 103.427C39.5625 103.39 39.8438 103.296 39.8813 103.146C39.9188 102.996 40.0688 102.846 40.3313 102.696C40.5938 102.546 40.7437 102.359 40.7812 102.134C40.8188 101.909 40.9875 101.702 41.2875 101.515C41.5875 101.327 41.7562 101.14 41.7938 100.952C41.8313 100.765 42.0188 100.634 42.3563 100.559C42.6938 100.484 42.9938 100.315 43.2563 100.052C43.5188 99.79 44.025 99.64 44.775 99.6025C45.525 99.565 46.0688 99.6775 46.4062 99.94C46.7438 100.202 47.1188 100.371 47.5312 100.446C47.9438 100.521 48.2063 100.69 48.3188 100.952C48.4312 101.215 48.6375 101.421 48.9375 101.571C49.2375 101.721 49.425 101.984 49.5 102.359C49.575 102.734 49.5938 103.221 49.5562 103.821C49.5188 104.421 49.4438 104.796 49.3313 104.946C49.2188 105.096 49.0687 105.19 48.8813 105.227C48.6938 105.265 47.8687 105.284 46.4062 105.284C44.9438 105.284 44.1375 105.377 43.9875 105.565C43.8375 105.752 43.2 105.921 42.075 106.071C40.95 106.221 40.275 106.427 40.05 106.69C39.825 106.952 39.5438 107.102 39.2063 107.14C38.8687 107.177 38.6625 107.29 38.5875 107.477C38.5125 107.665 38.3062 107.871 37.9688 108.096C37.6313 108.321 37.4438 108.527 37.4062 108.715C37.3688 108.902 37.2188 109.052 36.9563 109.165C36.6938 109.277 36.5625 110.177 36.5625 111.865C36.5625 113.552 36.6938 114.471 36.9563 114.621C37.2188 114.771 37.3687 114.94 37.4062 115.127C37.4438 115.315 37.5563 115.446 37.7437 115.521C37.9313 115.596 38.1187 115.784 38.3062 116.084C38.4938 116.384 38.7188 116.552 38.9813 116.59C39.2438 116.627 39.4688 116.777 39.6562 117.04C39.8438 117.302 40.9125 117.434 42.8625 117.434C44.8125 117.434 45.825 117.321 45.9 117.096C45.975 116.871 46.2 116.702 46.575 116.59C46.95 116.477 47.3438 116.159 47.7563 115.634C48.1688 115.109 48.4688 114.846 48.6562 114.846C48.8438 114.846 49.0313 114.959 49.2188 115.184C49.4062 115.409 49.5187 115.84 49.5562 116.477C49.5938 117.115 50.2875 117.434 51.6375 117.434C52.3125 117.434 52.9875 117.434 53.6625 117.434C53.6813 115.034 53.7 112.634 53.7188 110.234C53.7563 105.434 53.7375 102.902 53.6625 102.64C53.5875 102.377 53.4375 102.134 53.2125 101.909C52.9875 101.684 52.8375 101.346 52.7625 100.896C52.6875 100.446 52.5563 100.202 52.3687 100.165C52.1813 100.127 52.0312 99.9775 51.9188 99.715C51.8062 99.4525 51.6 99.2462 51.3 99.0962C51 98.9462 50.8125 98.7587 50.7375 98.5337C50.6625 98.3087 50.4188 98.1775 50.0063 98.14C49.5938 98.1025 49.2937 97.9525 49.1063 97.69C48.9188 97.4275 47.7188 97.2775 45.5063 97.24C43.2938 97.2025 42.075 97.2025 41.85 97.24ZM84.7687 97.24C84.5063 97.2775 84.2438 97.4275 83.9813 97.69C83.7188 97.9525 83.4188 98.1025 83.0812 98.14C82.7438 98.1775 82.5187 98.3087 82.4062 98.5337C82.2938 98.7587 82.125 98.9087 81.9 98.9837C81.675 99.0587 81.375 99.2837 81 99.6587C80.625 100.034 80.4187 100.315 80.3813 100.502C80.3438 100.69 80.1938 100.859 79.9313 101.009C79.6688 101.159 79.4813 101.477 79.3688 101.965C79.2563 102.452 79.0875 102.771 78.8625 102.921C78.6375 103.071 78.4875 103.69 78.4125 104.777C78.3375 105.865 78.3375 107.252 78.4125 108.94C78.4875 110.627 78.6563 111.546 78.9188 111.696C79.1813 111.846 79.35 112.165 79.425 112.652C79.5 113.14 79.65 113.421 79.875 113.496C80.1 113.571 80.25 113.721 80.325 113.946C80.4 114.171 80.55 114.34 80.775 114.452C81 114.565 81.2062 114.771 81.3937 115.071C81.5813 115.371 81.7688 115.54 81.9562 115.577C82.1438 115.615 82.2938 115.765 82.4062 116.027C82.5187 116.29 82.8375 116.459 83.3625 116.534C83.8875 116.609 84.225 116.777 84.375 117.04C84.525 117.302 85.8188 117.434 88.2563 117.434C90.6938 117.434 92.025 117.321 92.25 117.096C92.475 116.871 92.8125 116.702 93.2625 116.59C93.7125 116.477 94.0688 116.29 94.3312 116.027C94.5938 115.765 94.875 115.596 95.175 115.521C95.475 115.446 95.6625 115.277 95.7375 115.015C95.8125 114.752 96 114.452 96.3 114.115C96.6 113.777 96.7687 113.477 96.8063 113.215C96.8438 112.952 96.9563 112.765 97.1437 112.652C97.3313 112.54 97.4062 112.446 97.3688 112.371C97.3313 112.296 97.0125 112.221 96.4125 112.146C95.8125 112.071 95.4 111.921 95.175 111.696C94.95 111.471 94.6313 111.34 94.2188 111.302C93.8063 111.265 93.5625 111.359 93.4875 111.584C93.4125 111.809 93.225 112.015 92.925 112.202C92.625 112.39 92.4563 112.577 92.4188 112.765C92.3813 112.952 92.2312 113.084 91.9688 113.159C91.7063 113.234 91.4625 113.421 91.2375 113.721C91.0125 114.021 90.1688 114.19 88.7062 114.227C87.2438 114.265 86.325 114.227 85.95 114.115C85.575 114.002 85.2938 113.834 85.1063 113.609C84.9188 113.384 84.7125 113.252 84.4875 113.215C84.2625 113.177 84.0938 113.102 83.9813 112.99C83.8688 112.877 83.8125 112.746 83.8125 112.596C83.8125 112.446 83.6812 112.296 83.4188 112.146C83.1563 111.996 82.9688 111.584 82.8563 110.909C82.7438 110.234 82.6125 109.859 82.4625 109.784C82.3125 109.709 82.2188 109.596 82.1813 109.446C82.1438 109.296 82.2375 109.09 82.4625 108.827C82.6875 108.565 82.9125 108.396 83.1375 108.321C83.3625 108.246 85.8 108.227 90.45 108.265C95.1 108.302 97.4813 108.246 97.5938 108.096C97.7062 107.946 97.7625 107.121 97.7625 105.621C97.7625 104.121 97.6312 103.296 97.3688 103.146C97.1063 102.996 96.9375 102.659 96.8625 102.134C96.7875 101.609 96.6187 101.29 96.3563 101.177C96.0938 101.065 95.925 100.877 95.85 100.615C95.775 100.352 95.6437 100.184 95.4562 100.109C95.2688 100.034 95.1 99.865 94.95 99.6025C94.8 99.34 94.6312 99.19 94.4438 99.1525C94.2563 99.115 94.0688 98.9462 93.8813 98.6462C93.6938 98.3462 93.3938 98.1775 92.9813 98.14C92.5688 98.1025 92.2312 97.9337 91.9688 97.6337C91.7063 97.3337 90.5063 97.1837 88.3688 97.1837C86.2313 97.1837 85.0312 97.2025 84.7687 97.24ZM101.812 97.24C101.663 97.2775 101.588 100.652 101.588 107.365C101.588 110.721 101.588 114.077 101.588 117.434C102.263 117.434 102.938 117.434 103.612 117.434C104.288 117.434 104.963 117.434 105.638 117.434C105.656 115.84 105.675 114.246 105.694 112.652C105.731 109.465 105.787 107.627 105.862 107.14C105.938 106.652 106.106 106.259 106.369 105.959C106.631 105.659 106.781 105.246 106.819 104.721C106.856 104.196 106.912 103.877 106.987 103.765C107.063 103.652 107.194 103.577 107.381 103.54C107.569 103.502 107.719 103.334 107.831 103.034C107.944 102.734 108.131 102.527 108.394 102.415C108.656 102.302 108.825 102.134 108.9 101.909C108.975 101.684 109.181 101.534 109.519 101.459C109.856 101.384 110.119 101.234 110.306 101.009C110.494 100.784 110.906 100.634 111.544 100.559C112.181 100.484 112.556 100.146 112.669 99.5462C112.781 98.9462 112.987 98.4775 113.288 98.14C113.588 97.8025 113.737 97.5775 113.737 97.465C113.738 97.4087 113.737 97.3525 113.737 97.2962C113.175 97.2962 112.612 97.2962 112.05 97.2962C110.925 97.2962 110.306 97.4087 110.194 97.6337C110.081 97.8587 109.8 98.0087 109.35 98.0837C108.9 98.1587 108.638 98.3087 108.562 98.5337C108.488 98.7587 108.3 98.9462 108 99.0962C107.7 99.2462 107.494 99.4712 107.381 99.7712C107.269 100.071 107.062 100.24 106.763 100.277C106.463 100.315 106.219 100.202 106.031 99.94C105.844 99.6775 105.75 99.1712 105.75 98.4212C105.75 97.6712 105.131 97.2775 103.894 97.24C102.656 97.2025 101.962 97.2025 101.812 97.24ZM119.756 97.24C119.569 97.2775 119.438 97.4087 119.362 97.6337C119.288 97.8587 119.006 98.0275 118.519 98.14C118.031 98.2525 117.75 98.4212 117.675 98.6462C117.6 98.8712 117.413 99.0962 117.112 99.3212C116.813 99.5462 116.606 100.052 116.494 100.84C116.381 101.627 116.362 102.565 116.438 103.652C116.513 104.74 116.681 105.34 116.944 105.452C117.206 105.565 117.375 105.752 117.45 106.015C117.525 106.277 117.806 106.484 118.294 106.634C118.781 106.784 119.1 106.952 119.25 107.14C119.4 107.327 119.775 107.459 120.375 107.534C120.975 107.609 121.35 107.759 121.5 107.984C121.65 108.209 121.8 108.34 121.95 108.377C122.1 108.415 122.625 108.471 123.525 108.546C124.425 108.621 124.969 108.79 125.156 109.052C125.344 109.315 125.7 109.502 126.225 109.615C126.75 109.727 127.106 109.971 127.294 110.346C127.481 110.721 127.556 111.265 127.519 111.977C127.481 112.69 127.256 113.234 126.844 113.609C126.431 113.984 126.056 114.19 125.719 114.227C125.381 114.265 125.025 114.396 124.65 114.621C124.275 114.846 123.956 114.959 123.694 114.959C123.431 114.959 123.169 114.865 122.906 114.677C122.644 114.49 122.231 114.34 121.669 114.227C121.106 114.115 120.506 113.74 119.869 113.102C119.231 112.465 118.875 111.996 118.8 111.696C118.725 111.396 118.5 111.246 118.125 111.246C117.75 111.246 117.431 111.359 117.169 111.584C116.906 111.809 116.569 111.977 116.156 112.09C115.744 112.202 115.538 112.446 115.538 112.821C115.538 113.196 115.669 113.44 115.931 113.552C116.194 113.665 116.362 113.834 116.438 114.059C116.513 114.284 116.681 114.49 116.944 114.677C117.206 114.865 117.375 115.052 117.45 115.24C117.525 115.427 117.656 115.54 117.844 115.577C118.031 115.615 118.2 115.765 118.35 116.027C118.5 116.29 118.8 116.459 119.25 116.534C119.7 116.609 120.019 116.777 120.206 117.04C120.394 117.302 121.556 117.434 123.694 117.434C125.831 117.434 127.031 117.302 127.294 117.04C127.556 116.777 127.875 116.609 128.25 116.534C128.625 116.459 128.831 116.346 128.869 116.196C128.906 116.046 129.075 115.877 129.375 115.69C129.675 115.502 129.844 115.315 129.881 115.127C129.919 114.94 130.069 114.771 130.331 114.621C130.594 114.471 130.8 113.946 130.95 113.046C131.1 112.146 131.1 111.134 130.95 110.009C130.8 108.884 130.613 108.284 130.388 108.209C130.162 108.134 130.013 107.984 129.938 107.759C129.863 107.534 129.675 107.365 129.375 107.252C129.075 107.14 128.869 106.99 128.756 106.802C128.644 106.615 128.194 106.446 127.406 106.296C126.619 106.146 126.15 105.94 126 105.677C125.85 105.415 125.287 105.265 124.312 105.227C123.338 105.19 122.737 105.134 122.513 105.059C122.288 104.984 122.1 104.834 121.95 104.609C121.8 104.384 121.481 104.215 120.994 104.102C120.506 103.99 120.169 103.709 119.981 103.259C119.794 102.809 119.719 102.302 119.756 101.74C119.794 101.177 119.869 100.84 119.981 100.727C120.094 100.615 120.263 100.54 120.487 100.502C120.713 100.465 120.863 100.352 120.938 100.165C121.013 99.9775 121.163 99.8275 121.388 99.715C121.612 99.6025 122.156 99.5462 123.019 99.5462C123.881 99.5462 124.444 99.6025 124.706 99.715C124.969 99.8275 125.156 99.9775 125.269 100.165C125.381 100.352 125.587 100.484 125.888 100.559C126.188 100.634 126.375 100.802 126.45 101.065C126.525 101.327 126.675 101.477 126.9 101.515C127.125 101.552 127.313 101.721 127.463 102.021C127.613 102.321 127.837 102.471 128.138 102.471C128.438 102.471 128.7 102.321 128.925 102.021C129.15 101.721 129.506 101.552 129.994 101.515C130.481 101.477 130.725 101.271 130.725 100.896C130.725 100.521 130.631 100.315 130.444 100.277C130.256 100.24 130.106 100.165 129.994 100.052C129.881 99.94 129.825 99.8087 129.825 99.6587C129.825 99.5087 129.694 99.3775 129.431 99.265C129.169 99.1525 128.963 98.9462 128.812 98.6462C128.663 98.3462 128.4 98.1962 128.025 98.1962C127.65 98.1962 127.369 98.14 127.181 98.0275C126.994 97.915 126.863 97.765 126.788 97.5775C126.713 97.39 125.569 97.2775 123.356 97.24C121.144 97.2025 119.944 97.2025 119.756 97.24ZM141.863 97.24C141.638 97.2775 141.431 97.4275 141.244 97.69C141.056 97.9525 140.756 98.1025 140.344 98.14C139.931 98.1775 139.669 98.3275 139.556 98.59C139.444 98.8525 139.256 99.0212 138.994 99.0962C138.731 99.1712 138.562 99.3212 138.488 99.5462C138.413 99.7712 138.3 99.94 138.15 100.052C138 100.165 137.775 100.184 137.475 100.109C137.175 100.034 136.969 99.715 136.856 99.1525C136.744 98.59 136.575 98.2712 136.35 98.1962C136.125 98.1212 135.938 97.9525 135.787 97.69C135.713 97.5587 135.638 97.4275 135.562 97.2962C135.562 101.984 135.562 106.671 135.562 111.359C135.562 120.734 135.6 125.44 135.675 125.477C135.75 125.515 135.956 125.515 136.294 125.477C136.631 125.44 136.8 123.696 136.8 120.246C136.8 116.796 136.838 114.996 136.912 114.846C136.988 114.696 137.231 114.621 137.644 114.621C138.056 114.621 138.337 114.771 138.488 115.071C138.638 115.371 138.825 115.54 139.05 115.577C139.275 115.615 139.481 115.746 139.669 115.971C139.856 116.196 140.213 116.384 140.738 116.534C141.263 116.684 141.544 116.834 141.581 116.984C141.619 117.134 141.712 117.246 141.863 117.321C142.013 117.396 143.119 117.434 145.181 117.434C147.244 117.434 148.388 117.302 148.613 117.04C148.838 116.777 149.213 116.59 149.738 116.477C150.263 116.365 150.6 116.196 150.75 115.971C150.9 115.746 151.106 115.577 151.369 115.465C151.631 115.352 151.819 115.165 151.931 114.902C152.044 114.64 152.194 114.49 152.381 114.452C152.569 114.415 152.719 114.152 152.831 113.665C152.944 113.177 153.131 112.84 153.394 112.652C153.656 112.465 153.825 111.996 153.9 111.246C153.975 110.496 154.125 109.99 154.35 109.727C154.575 109.465 154.706 108.809 154.744 107.759C154.781 106.709 154.65 105.846 154.35 105.171C154.05 104.496 153.881 103.859 153.844 103.259C153.806 102.659 153.656 102.284 153.394 102.134C153.131 101.984 152.963 101.665 152.888 101.177C152.813 100.69 152.625 100.371 152.325 100.221C152.025 100.071 151.838 99.865 151.763 99.6025C151.688 99.34 151.537 99.19 151.312 99.1525C151.088 99.115 150.919 98.965 150.806 98.7025C150.694 98.44 150.394 98.2712 149.906 98.1962C149.419 98.1212 149.1 97.9525 148.95 97.69C148.8 97.4275 147.637 97.2775 145.463 97.24C143.288 97.2025 142.088 97.2025 141.863 97.24ZM169.65 97.24C169.425 97.2775 169.181 97.4275 168.919 97.69C168.656 97.9525 168.356 98.1212 168.019 98.1962C167.681 98.2712 167.494 98.3837 167.456 98.5337C167.419 98.6837 167.25 98.8525 166.95 99.04C166.65 99.2275 166.481 99.415 166.444 99.6025C166.406 99.79 166.256 99.94 165.994 100.052C165.731 100.165 165.581 100.352 165.544 100.615C165.506 100.877 165.338 101.215 165.037 101.627C164.738 102.04 164.606 102.621 164.644 103.371C164.663 103.746 164.681 104.121 164.7 104.496C164.85 104.402 165 104.309 165.15 104.215C165.45 104.027 165.656 103.69 165.769 103.202C165.881 102.715 166.069 102.34 166.331 102.077C166.594 101.815 166.744 101.534 166.781 101.234C166.819 100.934 166.969 100.727 167.231 100.615C167.494 100.502 167.662 100.334 167.738 100.109C167.812 99.8837 167.981 99.715 168.244 99.6025C168.506 99.49 168.712 99.3025 168.863 99.04C169.013 98.7775 169.2 98.6087 169.425 98.5337C169.65 98.4587 170.606 98.4212 172.294 98.4212C173.981 98.4212 174.938 98.4587 175.162 98.5337C175.388 98.6087 175.594 98.7587 175.781 98.9837C175.969 99.2087 176.231 99.3775 176.569 99.49C176.906 99.6025 177.169 99.8462 177.356 100.221C177.544 100.596 177.769 100.915 178.031 101.177C178.294 101.44 178.444 102.077 178.481 103.09C178.519 104.102 178.425 104.721 178.2 104.946C177.975 105.171 177.263 105.284 176.062 105.284C174.863 105.284 173.963 105.415 173.363 105.677C172.763 105.94 171.825 106.109 170.55 106.184C169.275 106.259 168.525 106.427 168.3 106.69C168.075 106.952 167.719 107.121 167.231 107.196C166.744 107.271 166.463 107.421 166.388 107.646C166.313 107.871 166.162 108.021 165.938 108.096C165.713 108.171 165.562 108.321 165.488 108.546C165.413 108.771 165.244 108.959 164.981 109.109C164.719 109.259 164.512 109.784 164.363 110.684C164.213 111.584 164.213 112.502 164.363 113.44C164.513 114.377 164.737 114.977 165.037 115.24C165.338 115.502 165.525 115.765 165.6 116.027C165.675 116.29 165.919 116.459 166.331 116.534C166.744 116.609 167.044 116.777 167.231 117.04C167.419 117.302 168.281 117.452 169.819 117.49C171.356 117.527 172.406 117.527 172.969 117.49C173.531 117.452 173.869 117.321 173.981 117.096C174.094 116.871 174.413 116.702 174.938 116.59C175.463 116.477 175.744 116.327 175.781 116.14C175.819 115.952 175.969 115.802 176.231 115.69C176.494 115.577 176.662 115.39 176.738 115.127C176.813 114.865 176.981 114.621 177.244 114.396C177.506 114.171 177.75 114.134 177.975 114.284C178.2 114.434 178.35 114.602 178.425 114.79C178.5 114.977 178.537 115.465 178.537 116.252C178.538 116.646 178.537 117.04 178.537 117.434C178.781 117.434 179.025 117.434 179.269 117.434C179.513 117.434 179.756 117.434 180 117.434C180 115.127 180 112.821 180 110.515C180 105.902 179.944 103.127 179.831 102.19C179.719 101.252 179.531 100.671 179.269 100.446C179.006 100.221 178.856 99.9775 178.819 99.715C178.781 99.4525 178.631 99.2837 178.369 99.2087C178.106 99.1337 177.919 98.9462 177.806 98.6462C177.694 98.3462 177.45 98.1775 177.075 98.14C176.7 98.1025 176.4 97.9525 176.175 97.69C175.95 97.4275 174.863 97.2775 172.912 97.24C170.963 97.2025 169.875 97.2025 169.65 97.24ZM190.856 97.24C190.594 97.2775 190.444 97.3712 190.406 97.5212C190.369 97.6712 190.275 97.8025 190.125 97.915C189.975 98.0275 189.694 98.1025 189.281 98.14C188.869 98.1775 188.625 98.3087 188.55 98.5337C188.475 98.7587 188.306 98.9275 188.044 99.04C187.781 99.1525 187.613 99.3212 187.537 99.5462C187.463 99.7712 187.294 99.94 187.031 100.052C186.769 100.165 186.6 100.352 186.525 100.615C186.45 100.877 186.281 101.121 186.019 101.346C185.756 101.571 185.588 101.965 185.513 102.527C185.438 103.09 185.269 103.521 185.006 103.821C184.744 104.121 184.613 105.284 184.613 107.309C184.613 109.334 184.744 110.496 185.006 110.796C185.269 111.096 185.438 111.509 185.513 112.034C185.588 112.559 185.756 112.952 186.019 113.215C186.281 113.477 186.431 113.74 186.469 114.002C186.506 114.265 186.638 114.434 186.863 114.509C187.088 114.584 187.256 114.752 187.369 115.015C187.481 115.277 187.669 115.446 187.931 115.521C188.194 115.596 188.381 115.765 188.494 116.027C188.606 116.29 188.906 116.459 189.394 116.534C189.881 116.609 190.256 116.777 190.519 117.04C190.781 117.302 192.075 117.434 194.4 117.434C196.725 117.434 197.944 117.321 198.056 117.096C198.169 116.871 198.469 116.702 198.956 116.59C199.444 116.477 199.725 116.327 199.8 116.14C199.875 115.952 200.025 115.802 200.25 115.69C200.475 115.577 200.681 115.371 200.869 115.071C201.056 114.771 201.244 114.584 201.431 114.509C201.619 114.434 201.75 114.171 201.825 113.721C201.9 113.271 202.069 112.971 202.331 112.821C202.594 112.671 202.706 112.484 202.669 112.259C202.631 112.034 202.444 111.865 202.106 111.752C201.769 111.64 201.45 111.715 201.15 111.977C200.85 112.24 200.644 112.615 200.531 113.102C200.419 113.59 200.212 113.927 199.912 114.115C199.613 114.302 199.444 114.49 199.406 114.677C199.369 114.865 199.144 115.034 198.731 115.184C198.319 115.334 197.963 115.54 197.662 115.802C197.363 116.065 196.387 116.215 194.738 116.252C193.088 116.29 192.075 116.271 191.7 116.196C191.325 116.121 191.062 115.952 190.912 115.69C190.763 115.427 190.444 115.24 189.956 115.127C189.469 115.015 189.169 114.846 189.056 114.621C188.944 114.396 188.756 114.209 188.494 114.059C188.231 113.909 188.025 113.59 187.875 113.102C187.725 112.615 187.575 112.352 187.425 112.315C187.275 112.277 187.144 112.184 187.031 112.034C186.919 111.884 186.844 111.509 186.806 110.909C186.769 110.309 186.619 109.784 186.356 109.334C186.094 108.884 185.963 108.19 185.963 107.252C185.963 106.315 186 105.734 186.075 105.509C186.15 105.284 186.281 105.096 186.469 104.946C186.656 104.796 186.769 104.384 186.806 103.709C186.844 103.034 186.994 102.584 187.256 102.359C187.519 102.134 187.688 101.834 187.763 101.459C187.838 101.084 188.025 100.821 188.325 100.671C188.625 100.521 188.831 100.315 188.944 100.052C189.056 99.79 189.319 99.6025 189.731 99.49C190.144 99.3775 190.444 99.2087 190.631 98.9837C190.819 98.7587 191.025 98.6087 191.25 98.5337C191.475 98.4587 192.544 98.44 194.456 98.4775C196.369 98.515 197.438 98.6462 197.662 98.8712C197.888 99.0962 198.188 99.265 198.562 99.3775C198.938 99.49 199.181 99.6775 199.294 99.94C199.406 100.202 199.613 100.427 199.912 100.615C200.213 100.802 200.438 101.159 200.588 101.684C200.738 102.209 201.113 102.471 201.713 102.471C202.313 102.471 202.631 102.415 202.669 102.302C202.706 102.19 202.613 102.059 202.388 101.909C202.162 101.759 201.994 101.44 201.881 100.952C201.769 100.465 201.619 100.202 201.431 100.165C201.244 100.127 200.888 99.79 200.363 99.1525C199.838 98.515 199.387 98.1587 199.013 98.0837C198.638 98.0087 198.375 97.8587 198.225 97.6337C198.075 97.4087 196.875 97.2775 194.625 97.24C192.375 97.2025 191.119 97.2025 190.856 97.24ZM211.838 97.24C211.613 97.2775 211.481 97.3712 211.444 97.5212C211.406 97.6712 211.312 97.8025 211.162 97.915C211.013 98.0275 210.713 98.1212 210.263 98.1962C209.813 98.2712 209.569 98.4025 209.531 98.59C209.494 98.7775 209.344 98.9275 209.081 99.04C208.819 99.1525 208.612 99.3587 208.463 99.6587C208.313 99.9587 208.125 100.146 207.9 100.221C207.675 100.296 207.525 100.502 207.45 100.84C207.375 101.177 207.225 101.44 207 101.627C206.775 101.815 206.588 102.284 206.438 103.034C206.288 103.784 206.1 104.309 205.875 104.609C205.65 104.909 205.537 105.827 205.537 107.365C205.538 108.902 205.669 109.859 205.931 110.234C206.194 110.609 206.362 111.096 206.438 111.696C206.513 112.296 206.644 112.634 206.831 112.709C207.019 112.784 207.188 113.084 207.338 113.609C207.488 114.134 207.656 114.415 207.844 114.452C208.031 114.49 208.2 114.659 208.35 114.959C208.5 115.259 208.706 115.446 208.969 115.521C209.231 115.596 209.419 115.746 209.531 115.971C209.644 116.196 209.963 116.365 210.488 116.477C211.013 116.59 211.388 116.777 211.613 117.04C211.838 117.302 213.094 117.434 215.381 117.434C217.669 117.434 218.887 117.321 219.037 117.096C219.188 116.871 219.506 116.702 219.994 116.59C220.481 116.477 220.763 116.309 220.838 116.084C220.913 115.859 221.062 115.709 221.287 115.634C221.513 115.559 221.681 115.409 221.794 115.184C221.906 114.959 222.094 114.771 222.356 114.621C222.619 114.471 222.769 114.265 222.806 114.002C222.844 113.74 222.994 113.477 223.256 113.215C223.519 112.952 223.65 112.709 223.65 112.484C223.65 112.371 223.65 112.259 223.65 112.146C223.463 112.146 223.275 112.146 223.088 112.146C222.713 112.146 222.375 112.296 222.075 112.596C221.775 112.896 221.587 113.196 221.513 113.496C221.438 113.796 221.287 113.984 221.062 114.059C220.838 114.134 220.65 114.321 220.5 114.621C220.35 114.921 220.125 115.109 219.825 115.184C219.525 115.259 219.244 115.427 218.981 115.69C218.719 115.952 218.381 116.121 217.969 116.196C217.556 116.271 216.506 116.29 214.819 116.252C213.131 116.215 212.156 116.046 211.894 115.746C211.631 115.446 211.275 115.24 210.825 115.127C210.375 115.015 210.112 114.865 210.037 114.677C209.963 114.49 209.775 114.302 209.475 114.115C209.175 113.927 208.969 113.646 208.856 113.271C208.744 112.896 208.556 112.596 208.294 112.371C208.031 112.146 207.881 111.752 207.844 111.19C207.806 110.627 207.656 110.159 207.394 109.784C207.131 109.409 207 109.015 207 108.602C207 108.19 207.131 107.834 207.394 107.534C207.656 107.234 208.031 107.027 208.519 106.915C209.006 106.802 211.256 106.765 215.269 106.802C219.281 106.84 221.794 106.821 222.806 106.746C223.819 106.671 224.381 106.596 224.494 106.521C224.606 106.446 224.662 106.315 224.662 106.127C224.662 105.94 224.531 105.49 224.269 104.777C224.006 104.065 223.837 103.352 223.763 102.64C223.688 101.927 223.519 101.477 223.256 101.29C222.994 101.102 222.844 100.896 222.806 100.671C222.769 100.446 222.656 100.296 222.469 100.221C222.281 100.146 222.094 99.9587 221.906 99.6587C221.719 99.3587 221.513 99.1712 221.287 99.0962C221.062 99.0212 220.894 98.8525 220.781 98.59C220.669 98.3275 220.406 98.1775 219.994 98.14C219.581 98.1025 219.244 97.9337 218.981 97.6337C218.719 97.3337 217.519 97.1837 215.381 97.1837C213.244 97.1837 212.062 97.2025 211.838 97.24ZM144.956 98.4775C147.019 98.515 148.144 98.6837 148.331 98.9837C148.519 99.2837 148.763 99.4525 149.062 99.49C149.363 99.5275 149.644 99.6587 149.906 99.8837C150.169 100.109 150.356 100.334 150.469 100.559C150.581 100.784 150.769 101.009 151.031 101.234C151.294 101.459 151.444 101.721 151.481 102.021C151.519 102.321 151.688 102.584 151.988 102.809C152.287 103.034 152.494 103.915 152.606 105.452C152.719 106.99 152.719 108.359 152.606 109.559C152.494 110.759 152.288 111.509 151.988 111.809C151.688 112.109 151.5 112.427 151.425 112.765C151.35 113.102 151.013 113.571 150.412 114.171C149.812 114.771 149.363 115.109 149.062 115.184C148.763 115.259 148.538 115.427 148.388 115.69C148.238 115.952 147.938 116.121 147.488 116.196C147.037 116.271 146.1 116.309 144.675 116.309C143.25 116.309 142.35 116.271 141.975 116.196C141.6 116.121 141.3 115.952 141.075 115.69C140.85 115.427 140.625 115.277 140.4 115.24C140.175 115.202 139.969 115.034 139.781 114.734C139.594 114.434 139.388 114.227 139.162 114.115C138.938 114.002 138.806 113.834 138.769 113.609C138.731 113.384 138.581 113.234 138.319 113.159C138.056 113.084 137.869 112.84 137.756 112.427C137.644 112.015 137.475 111.696 137.25 111.471C137.025 111.246 136.912 109.84 136.912 107.252C136.912 104.665 137.044 103.24 137.306 102.977C137.569 102.715 137.719 102.452 137.756 102.19C137.794 101.927 137.963 101.702 138.263 101.515C138.562 101.327 138.75 101.102 138.825 100.84C138.9 100.577 139.069 100.315 139.331 100.052C139.594 99.79 139.875 99.6212 140.175 99.5462C140.475 99.4712 140.7 99.3025 140.85 99.04C141 98.7775 141.206 98.6087 141.469 98.5337C141.731 98.4587 142.894 98.44 144.956 98.4775ZM215.156 98.4212C216.919 98.4212 218.213 98.6275 219.037 99.04C219.863 99.4525 220.313 99.7712 220.388 99.9962C220.462 100.221 220.65 100.409 220.95 100.559C221.25 100.709 221.438 100.915 221.513 101.177C221.587 101.44 221.756 101.702 222.019 101.965C222.281 102.227 222.413 102.884 222.412 103.934C222.412 104.984 222.319 105.584 222.131 105.734C221.944 105.884 219.581 105.94 215.044 105.902C210.506 105.865 208.163 105.771 208.013 105.621C207.862 105.471 207.806 104.927 207.844 103.99C207.881 103.052 208.013 102.49 208.238 102.302C208.463 102.115 208.631 101.834 208.744 101.459C208.856 101.084 209.063 100.802 209.363 100.615C209.662 100.427 209.85 100.221 209.925 99.9962C210 99.7712 210.281 99.5837 210.769 99.4337C211.256 99.2837 211.556 99.115 211.669 98.9275C211.781 98.74 211.95 98.6087 212.175 98.5337C212.4 98.4587 213.394 98.4212 215.156 98.4212ZM87.975 99.5462C88.575 99.5462 89.1188 99.6962 89.6063 99.9962C90.0938 100.296 90.4875 100.465 90.7875 100.502C91.0875 100.54 91.2938 100.69 91.4062 100.952C91.5187 101.215 91.725 101.421 92.025 101.571C92.325 101.721 92.4938 101.909 92.5312 102.134C92.5687 102.359 92.7 102.509 92.925 102.584C93.15 102.659 93.3 102.771 93.375 102.921C93.45 103.071 93.4875 103.427 93.4875 103.99C93.4875 104.552 93.3375 104.909 93.0375 105.059C92.7375 105.209 90.9938 105.265 87.8063 105.227C84.6188 105.19 82.95 105.021 82.8 104.721C82.65 104.421 82.65 103.952 82.8 103.315C82.95 102.677 83.1188 102.302 83.3063 102.19C83.4938 102.077 83.7563 101.796 84.0938 101.346C84.4313 100.896 84.8063 100.634 85.2188 100.559C85.6312 100.484 85.9313 100.334 86.1188 100.109C86.3063 99.8837 86.5125 99.7337 86.7375 99.6587C86.9625 99.5837 87.375 99.5462 87.975 99.5462ZM177.244 106.465C177.806 106.502 178.163 106.596 178.312 106.746C178.463 106.896 178.538 107.627 178.537 108.94C178.537 110.252 178.5 111.059 178.425 111.359C178.35 111.659 178.181 111.902 177.919 112.09C177.656 112.277 177.488 112.634 177.412 113.159C177.338 113.684 177.188 113.965 176.963 114.002C176.738 114.04 176.531 114.209 176.344 114.509C176.156 114.809 175.838 115.015 175.388 115.127C174.938 115.24 174.656 115.409 174.544 115.634C174.431 115.859 174.3 116.009 174.15 116.084C174 116.159 173.119 116.215 171.506 116.252C169.894 116.29 168.919 116.271 168.581 116.196C168.244 116.121 168 115.952 167.85 115.69C167.7 115.427 167.494 115.259 167.231 115.184C166.969 115.109 166.819 114.996 166.781 114.846C166.744 114.696 166.594 114.527 166.331 114.34C166.069 114.152 165.9 113.89 165.825 113.552C165.75 113.215 165.731 112.559 165.769 111.584C165.806 110.609 165.863 110.046 165.938 109.896C166.013 109.746 166.181 109.615 166.444 109.502C166.706 109.39 166.894 109.221 167.006 108.996C167.119 108.771 167.363 108.602 167.738 108.49C168.112 108.377 168.394 108.209 168.581 107.984C168.769 107.759 169.2 107.609 169.875 107.534C170.55 107.459 171.094 107.29 171.506 107.027C171.919 106.765 172.838 106.596 174.263 106.521C175.688 106.446 176.681 106.427 177.244 106.465ZM48.5438 107.534C48.7312 107.534 48.9375 107.627 49.1625 107.815C49.3875 108.002 49.5 108.659 49.5 109.784C49.5 110.909 49.4438 111.565 49.3313 111.752C49.2188 111.94 49.05 112.09 48.825 112.202C48.6 112.315 48.4688 112.484 48.4312 112.709C48.3937 112.934 48.2438 113.121 47.9813 113.271C47.7188 113.421 47.5313 113.609 47.4188 113.834C47.3062 114.059 47.1 114.19 46.8 114.227C46.5 114.265 46.2563 114.377 46.0688 114.565C45.8813 114.752 45.675 114.884 45.45 114.959C45.225 115.034 44.7938 115.09 44.1562 115.127C43.5188 115.165 42.8062 114.959 42.0188 114.509C41.2313 114.059 40.7438 113.421 40.5562 112.596C40.3688 111.771 40.3313 111.302 40.4438 111.19C40.5562 111.077 40.6688 110.796 40.7812 110.346C40.8938 109.896 41.0813 109.634 41.3438 109.559C41.6062 109.484 41.7938 109.334 41.9062 109.109C42.0188 108.884 42.1688 108.734 42.3563 108.659C42.5438 108.584 43.05 108.527 43.875 108.49C44.7 108.452 45.2625 108.359 45.5625 108.209C45.8625 108.059 46.3875 107.909 47.1375 107.759C47.8875 107.609 48.3563 107.534 48.5438 107.534Z" fill="#000000" fill-rule="nonzero" opacity="1" stroke="#161516" stroke-linecap="butt" stroke-linejoin="round" stroke-width="0.300258" vectornator:layerName="Kurve 1"/>
</g>
</svg>
