<?xml version="1.0" encoding="UTF-8" standalone="no"?>
<!DOCTYPE svg PUBLIC "-//W3C//DTD SVG 1.1//EN" "http://www.w3.org/Graphics/SVG/1.1/DTD/svg11.dtd">
<!-- Created with Vectornator (http://vectornator.io/) -->
<svg height="100%" stroke-miterlimit="10" style="fill-rule:nonzero;clip-rule:evenodd;stroke-linecap:round;stroke-linejoin:round;" version="1.1" viewBox="0 0 194 136" width="100%" xml:space="preserve" xmlns="http://www.w3.org/2000/svg" xmlns:vectornator="http://vectornator.io" xmlns:xlink="http://www.w3.org/1999/xlink">
<defs/>
<g id="Ebene-1" vectornator:layerName="Ebene 1">
<path d="M64.5 46C61.5 47.3333 58.5 50.3333 55.5 55C52.5 59.6667 51.1667 64.5 51.5 69.5C51.8333 74.5 53.3333 78.8333 56 82.5C58.6667 86.1667 61.5 88.6667 64.5 90C67.5 91.3333 71 92 75 92C79 92 83.1667 90.6667 87.5 88C91.8333 85.3333 95.3333 85.1667 98 87.5C100.667 89.8333 104.5 91.1667 109.5 91.5C114.5 91.8333 118.5 91.3333 121.5 90C124.5 88.6667 127 86.8333 129 84.5C131 82.1667 132.5 79.8333 133.5 77.5C134.5 75.1667 135 72 135 68C135 64 134.333 60.5 133 57.5C131.667 54.5 130.167 52.1667 128.5 50.5C126.833 48.8333 124.5 47.3333 121.5 46C118.5 44.6667 115 44 111 44C107 44 102.833 45.3333 98.5 48C94.1667 50.6667 90.6667 50.8333 88 48.5C85.3333 46.1667 81.5 44.8333 76.5 44.5C71.5 44.1667 67.5 44.6667 64.5 46ZM76.5 57C80.8333 57.6667 83.6667 59.1667 85 61.5C86.3333 63.8333 89 65 93 65C97 65 99.6667 63.8333 101 61.5C102.333 59.1667 105.167 57.6667 109.5 57C113.833 56.3333 117.167 57.1667 119.5 59.5C121.833 61.8333 123 64.6667 123 68C123 71.3333 121.833 74.1667 119.5 76.5C117.167 78.8333 114.5 80 111.5 80C108.5 80 106.167 79.5 104.5 78.5C102.833 77.5 101.5 76 100.5 74C99.5 72 97 71 93 71C89 71 86.3333 72.1667 85 74.5C83.6667 76.8333 80.8333 78.3333 76.5 79C72.1667 79.6667 69 79.1667 67 77.5C65 75.8333 63.6667 73.6667 63 71C62.3333 68.3333 62.3333 66 63 64C63.6667 62 65 60.1667 67 58.5C69 56.8333 72.1667 56.3333 76.5 57Z" fill="#000000" fill-rule="nonzero" opacity="1" stroke="none" vectornator:layerName="Kurve 1"/>
</g>
</svg>
