<?xml version="1.0" encoding="UTF-8" standalone="no"?>
<!DOCTYPE svg PUBLIC "-//W3C//DTD SVG 1.1//EN" "http://www.w3.org/Graphics/SVG/1.1/DTD/svg11.dtd">
<!-- Created with Vectornator (http://vectornator.io/) -->
<svg height="100%" stroke-miterlimit="10" style="fill-rule:nonzero;clip-rule:evenodd;stroke-linecap:round;stroke-linejoin:round;" version="1.1" viewBox="0 0 3024 4032" width="100%" xml:space="preserve" xmlns="http://www.w3.org/2000/svg" xmlns:vectornator="http://vectornator.io" xmlns:xlink="http://www.w3.org/1999/xlink">
<defs/>
<g id="Ebene-1" vectornator:layerName="Ebene 1">
<path d="M1458.63 1244.33C1449.12 1248.8 1440.73 1255.79 1433.46 1265.3C1426.19 1274.8 1421.72 1283.75 1420.04 1292.14C1418.37 1300.53 1417.25 1316.74 1416.69 1340.79C1416.41 1352.81 1416.13 1364.83 1415.85 1376.85C1398.79 1372.66 1381.74 1368.47 1364.68 1364.27C1330.57 1355.89 1312.4 1350.85 1310.16 1349.17C1307.93 1347.5 1303.73 1346.38 1297.58 1345.82C1291.43 1345.26 1288.08 1344.42 1287.52 1343.3C1286.96 1342.19 1283.88 1341.35 1278.29 1340.79C1272.7 1340.23 1268.51 1339.11 1265.71 1337.43C1262.91 1335.75 1258.44 1334.92 1252.29 1334.92C1246.14 1334.92 1242.5 1336.03 1241.39 1338.27C1240.27 1340.51 1250.05 1362.6 1270.74 1404.53C1291.43 1446.47 1308.77 1485.9 1322.75 1522.8C1336.73 1559.71 1348.75 1597.45 1358.81 1636.04C1368.88 1674.62 1375.31 1708.17 1378.11 1736.69C1380.9 1765.21 1381.74 1790.37 1380.62 1812.18C1379.5 1833.99 1375.31 1857.47 1368.04 1882.63C1360.77 1907.8 1349.87 1935.2 1335.33 1964.83C1320.79 1994.47 1305.69 2022.15 1290.03 2047.87C1274.38 2073.6 1263.75 2089.81 1258.16 2096.52C1252.57 2103.23 1248.65 2109.66 1246.42 2115.81C1244.18 2121.97 1243.62 2126.16 1244.74 2128.4C1245.86 2130.63 1248.1 2132.59 1251.45 2134.27C1254.81 2135.94 1283.04 2136.78 1336.17 2136.78C1362.73 2136.78 1389.29 2136.78 1415.85 2136.78C1415.85 2157.47 1415.85 2178.16 1415.85 2198.85C1415.85 2219.54 1415.85 2240.23 1415.85 2260.92C1385.65 2260.92 1355.46 2260.92 1325.26 2260.92C1264.87 2260.92 1229.36 2259.24 1218.74 2255.89C1208.11 2252.53 1199.17 2248.62 1191.9 2244.15C1184.63 2239.67 1176.52 2232.4 1167.57 2222.34C1158.63 2212.27 1151.92 2202.21 1147.44 2192.14C1142.97 2182.08 1140.17 2169.22 1139.05 2153.56C1137.94 2137.9 1135.7 2128.12 1132.34 2124.2C1128.99 2120.29 1070 2118.33 955.363 2118.33C840.731 2118.33 782.017 2119.73 779.221 2122.52C776.425 2125.32 774.747 2129.79 774.188 2135.94C773.629 2142.1 774.468 2156.35 776.704 2178.72C778.941 2201.09 782.017 2219.82 785.931 2234.92C789.845 2250.02 795.717 2267.07 803.545 2286.09C811.374 2305.1 820.321 2322.99 830.386 2339.77C840.451 2356.54 849.678 2370.24 858.066 2380.87C866.453 2391.49 878.755 2404.63 894.972 2420.29C911.188 2435.95 928.523 2449.93 946.976 2462.23C965.429 2474.53 985.839 2485.71 1008.21 2495.78C1030.57 2505.84 1049.03 2512.83 1063.57 2516.75C1078.1 2520.66 1092.92 2523.74 1108.02 2525.97C1123.12 2528.21 1238.87 2529.33 1455.27 2529.33C1671.68 2529.33 1786.87 2528.21 1800.85 2525.97C1814.83 2523.74 1826.85 2519.82 1836.91 2514.23C1846.98 2508.64 1853.69 2505.56 1857.05 2505.01C1860.4 2504.45 1868.23 2499.41 1880.53 2489.91C1892.83 2480.4 1904.86 2469.5 1916.6 2457.19C1928.34 2444.89 1942.88 2426.72 1960.21 2402.67C1977.55 2378.63 1997.4 2348.43 2019.77 2312.09C2042.13 2275.74 2059.19 2250.58 2070.93 2236.6C2082.68 2222.62 2094.98 2210.88 2107.84 2201.37C2120.7 2191.86 2139.43 2180.96 2164.04 2168.66C2188.64 2156.35 2202.34 2148.81 2205.14 2146.01C2207.93 2143.21 2209.33 2128.12 2209.33 2100.72C2209.33 2073.32 2208.21 2058.22 2205.97 2055.42C2203.74 2052.63 2201.22 2050.95 2198.43 2050.39C2195.63 2049.83 2135.24 2066.61 2017.25 2100.72C1899.26 2134.83 1825.73 2166.14 1796.65 2194.66C1767.58 2223.18 1746.33 2240.79 1732.91 2247.5C1719.49 2254.21 1710.54 2258.13 1706.07 2259.24C1701.59 2260.36 1675.31 2260.64 1627.22 2260.08C1579.13 2259.52 1554.81 2239.11 1554.25 2198.85C1553.69 2158.59 1571.02 2137.9 1606.25 2136.78C1641.48 2135.67 1668.32 2126.44 1686.77 2109.1C1705.23 2091.77 1723.68 2072.2 1742.13 2050.39C1760.59 2028.58 1777.64 2005.93 1793.3 1982.45C1808.96 1958.96 1821.82 1934.92 1831.88 1910.31C1841.95 1885.71 1847.82 1862.78 1849.5 1841.54C1851.17 1820.29 1850.33 1800.71 1846.98 1782.82C1843.62 1764.93 1838.87 1747.87 1832.72 1731.66C1826.57 1715.44 1820.42 1701.46 1814.27 1689.72C1808.12 1677.97 1798.05 1661.76 1784.07 1641.07C1770.09 1620.38 1753.88 1599.13 1735.42 1577.32C1716.97 1555.51 1696.56 1533.71 1674.19 1511.9C1651.83 1490.09 1631.41 1471.92 1612.96 1457.38C1594.51 1442.84 1585.28 1435.01 1585.28 1433.89C1585.28 1432.77 1582.49 1430.26 1576.89 1426.34C1571.3 1422.43 1566.27 1419.91 1561.8 1418.79C1557.32 1417.67 1554.81 1396.98 1554.25 1356.72C1553.69 1316.46 1552.01 1291.86 1549.22 1282.91C1546.42 1273.96 1540.55 1265.3 1531.6 1256.91C1522.65 1248.52 1515.1 1243.21 1508.95 1240.97C1502.8 1238.74 1495.25 1237.62 1486.31 1237.62C1477.36 1237.62 1468.13 1239.85 1458.63 1244.33ZM1165.9 1495.96C1161.42 1500.43 1136.82 1538.46 1092.08 1610.03C1047.35 1681.61 1023.02 1719.63 1019.11 1724.11C1015.2 1728.58 988.075 1770.24 937.749 1849.08C887.423 1927.93 861.7 1970.43 860.582 1976.58C859.463 1982.73 859.743 1986.64 861.421 1988.32C863.098 1990 917.339 1991.12 1024.14 1991.68C1130.95 1992.23 1186.31 1990.84 1190.22 1987.48C1194.13 1984.13 1201.12 1973.5 1211.19 1955.61C1221.25 1937.71 1231.32 1917.58 1241.39 1895.22C1251.45 1872.85 1258.44 1852.16 1262.35 1833.15C1266.27 1814.14 1268.23 1798.2 1268.23 1785.34C1268.23 1772.48 1265.99 1751.79 1261.52 1723.27C1257.04 1694.75 1249.77 1663.72 1239.71 1630.16C1229.64 1596.61 1218.74 1565.58 1207 1537.06C1195.25 1508.54 1188.26 1493.44 1186.03 1491.77C1183.79 1490.09 1180.99 1489.25 1177.64 1489.25C1174.28 1489.25 1170.37 1491.49 1165.9 1495.96Z" fill="#000000" fill-rule="nonzero" opacity="1" stroke="none"/>
</g>
</svg>
